<svg xmlns="http://www.w3.org/2000/svg" viewBox="0 0 389.44 389.44"><path d="M354.72 84.64H197.08l-31.44-37.4a4.839 4.839 0 00-3.72-1.72H34.72C15.554 45.542.022 61.074 0 80.24V309.2c.022 19.166 15.554 34.698 34.72 34.72h320c19.166-.022 34.698-15.554 34.72-34.72V119.36c-.022-19.166-15.554-34.698-34.72-34.72zm25.04 224.56c-.022 13.82-11.22 25.018-25.04 25.04h-320c-13.82-.022-25.018-11.22-25.04-25.04V80.24C9.702 66.42 20.9 55.222 34.72 55.2h124.84L191 92.6a4.839 4.839 0 003.72 1.72h160c13.82.022 25.018 11.22 25.04 25.04V309.2z"/></svg>